<svg xmlns="http://www.w3.org/2000/svg" viewBox="0 0 24.06 24.02"><defs><style>.cls-1{fill:#1b1464;}</style></defs><g id="Capa_2" data-name="Capa 2"><g id="Capa_1-2" data-name="Capa 1"><path class="cls-1" d="M13.77,15.58A8.74,8.74,0,0,1,1.66,13.72,8.62,8.62,0,0,1,13.85,1.78a8.73,8.73,0,0,1,1.73,12l1.09.67a2.77,2.77,0,0,1,.45.31l4.78,4c.76.63,2.5,2.77,2.1,3.68A2.74,2.74,0,0,1,22.17,24c-.71.19-2.89-1.39-3.38-2-1.35-1.65-2.74-3.27-4.08-4.93A14.08,14.08,0,0,1,13.77,15.58Zm-5.17-.4A6.57,6.57,0,1,0,2.05,8.61,6.54,6.54,0,0,0,8.6,15.18Z"/></g></g></svg>