<svg xmlns="http://www.w3.org/2000/svg" viewBox="0 0 483.91 273.23"><defs><style>.cls-1{fill:#1b1464;}</style></defs><g id="Capa_2" data-name="Capa 2"><g id="Capa_1-2" data-name="Capa 1"><path class="cls-1" d="M52.34,269.41H15q-8.09,0-11.54-4.41T0,251V139.17Q0,129.33,3.54,125T15,120.71H54.59A76.17,76.17,0,0,1,69.76,122a29,29,0,0,1,11.51,5.07,32.88,32.88,0,0,1,7.66,8A37.93,37.93,0,0,1,94,145.71,42.93,42.93,0,0,1,95.77,158q0,22.32-18.34,32.66Q101.52,200,101.52,227a47.56,47.56,0,0,1-5.25,22.47A34.22,34.22,0,0,1,82.1,264.24a43.47,43.47,0,0,1-12.84,4A108.72,108.72,0,0,1,52.34,269.41ZM24.75,143.33v38.44H47.43q9.24,0,14.29-2.13t7.71-8.11A21.41,21.41,0,0,0,71.51,162q0-11.25-6.58-15t-20.09-3.7Zm25.76,60H24.75v43.41H51.34q25.09,0,25.09-22,0-11.25-6.5-16.33T50.51,203.38Z"/><path class="cls-1" d="M203.63,248.31l-5.83-23.17H148.12l-5.83,23.67q-3.42,13.85-5.84,18.69a8.22,8.22,0,0,1-7.92,4.85q-4.66,0-8.25-5.16a20,20,0,0,1-3.58-11.71,38.78,38.78,0,0,1,.83-7.8q.84-4,2.75-11.21l31.26-119.83,3.21-12.4a78.64,78.64,0,0,1,4-12,21.56,21.56,0,0,1,5.58-7.74,13.93,13.93,0,0,1,17.17,0,21.72,21.72,0,0,1,5.59,7.62,65.87,65.87,0,0,1,3.58,10q1.46,5.34,3.71,14.28L226.3,235.47q3.75,13.59,3.75,19.76A20.89,20.89,0,0,1,226.51,267q-3.54,5.34-8.54,5.35a8,8,0,0,1-5-1.58,12.55,12.55,0,0,1-3.51-4.28,48.66,48.66,0,0,1-3-8.3Q204.8,252.58,203.63,248.31Zm-49-51.23h36.51l-18.42-76.16Z"/><path class="cls-1" d="M340.69,201.61q0,20.47-5.71,36.81T318.27,264a39.28,39.28,0,0,1-26.09,9.24q-18.09,0-29.84-12.63-8.34-9.09-13.54-24.26a90.39,90.39,0,0,1-5.21-29.5,30.21,30.21,0,0,1,3.12-14.24q3.14-5.92,8-5.93,3.91,0,6.63,4.62T265.93,205a131.26,131.26,0,0,0,5,18A31.34,31.34,0,0,0,278.59,235q4.92,4.71,12.92,4.7,11,0,17.88-9.47t6.88-23.64q0-11.25-3.71-18.26a27.38,27.38,0,0,0-9.59-10.7,112.2,112.2,0,0,0-15.71-7.85,85.84,85.84,0,0,1-22-13.33q-8.88-7.62-14.09-20.79t-5.21-32.73q0-18.63,5.5-33.11t15.92-22.26a39.88,39.88,0,0,1,24.51-7.78q11.25,0,19.46,5.16A43.42,43.42,0,0,1,324.94,58.6a64.11,64.11,0,0,1,7.91,17.94,71.06,71.06,0,0,1,2.5,18.33,33.73,33.73,0,0,1-3.12,14.71q-3.12,6.56-7.79,6.55A7,7,0,0,1,318,112.2c-1.48-2.62-3.07-6.91-4.8-12.86q-3.33-12.78-8-20t-15-7.16A18.45,18.45,0,0,0,274.72,80q-5.88,7.77-5.88,18.71a31.15,31.15,0,0,0,2,11.71,25.78,25.78,0,0,0,5.5,8.47,32.12,32.12,0,0,0,7.09,5.54q3.58,2,11.83,5.86A130.34,130.34,0,0,1,314,140.15a55.75,55.75,0,0,1,14.25,13.1q5.88,7.69,9.17,19.48T340.69,201.61Z"/><path class="cls-1" d="M366.07,257.43c-.05-1-.13-1.91-.13-2.87,0-18.86.05-37.73,0-56.6,0-10.39,1-20.5,4-30.09A64.64,64.64,0,0,1,378.29,150c.33-.48.58-1.07.9-1.56,1.66-2.54,1.6-2.45-.1-4.85a67,67,0,0,1-8.42-17c-3.65-10.61-4.84-21.82-4.76-33.42.1-13.76,0-27.52,0-41.28V49.05H354.43c8.16-16.53,16.12-32.65,24.21-49,8,16.29,16,32.42,24.16,48.92H388.43a14.15,14.15,0,0,0-.18,1.48c0,16.2-.12,32.41.1,48.61.12,9,2.83,16.65,8,22.67,3.69,4.28,7.89,6.46,12.75,6.46,6,0,12.06-.09,18.09,0a15.66,15.66,0,0,0,11.56-5c5-5,7.93-11.89,8.94-20.15a49.25,49.25,0,0,0,.38-6q0-23.08,0-46.17V49.12H435.5L459.74,0l24.17,48.94H470.35v2.94c0,15.76.06,31.52-.08,47.28A85,85,0,0,1,464.72,129a60.12,60.12,0,0,1-8.37,15.69,2,2,0,0,0,0,2.87c7.34,10.26,11.79,22.47,13.25,36.5.54,5.18.7,10.46.72,15.69.07,19.24,0,38.47,0,57.71H448.07c0-20.05,0-40.09,0-60.14,0-7.63-1.07-14.74-4.41-21.13-3.51-6.7-8.07-11.18-14.26-11.47-7.51-.35-15-.28-22.56,0-6,.2-10.51,4.53-13.94,10.73-3.52,6.37-4.77,13.75-4.73,21.68.1,19.31,0,38.61,0,57.92,0,.81,0,1.68,0,2.43Z"/><ellipse class="cls-1" cx="377.07" cy="257.38" rx="11.12" ry="14.87"/><ellipse class="cls-1" cx="459.18" cy="257.42" rx="11.13" ry="14.87"/></g></g></svg>